<?xml version="1.0" encoding="utf-8"?>
<!-- Generator: Adobe Illustrator 19.1.0, SVG Export Plug-In . SVG Version: 6.00 Build 0)  -->
<svg version="1.1" id="Layer_1" xmlns="http://www.w3.org/2000/svg" xmlns:xlink="http://www.w3.org/1999/xlink" x="0px" y="0px"
	 viewBox="0 0 512 512" enable-background="new 0 0 512 512" xml:space="preserve">
<g>
	<path d="M256,180.6c14.3,0,25.8-9.6,25.8-21.5V21.5C281.8,9.6,270.3,0,256,0s-25.8,9.6-25.8,21.5v137.6
		C230.2,171,241.7,180.6,256,180.6z"/>
	<path d="M371.2,75.2c-11-4.9-13.5,4.3-13.5,4.3v41.2c0,0-0.2,5.2,3.4,8.4c47.6,32.9,78.8,87.7,78.8,149.5
		c0,100.6-82.5,182.4-183.9,182.4S72.1,379,72.1,278.5c0-61.8,31.2-116.5,78.8-149.5c3.6-3.2,3.4-8.4,3.4-8.4V79.4
		c0,0-2.4-9.2-13.5-4.3c-71.7,40-120.4,116.1-120.4,203.3C20.5,407.2,126.2,512,256,512c129.9,0,235.5-104.8,235.5-233.5
		C491.5,191.2,442.9,115.2,371.2,75.2z"/>
</g>
</svg>
