<?xml version="1.0" encoding="utf-8"?>
<!-- Generator: Adobe Illustrator 19.1.0, SVG Export Plug-In . SVG Version: 6.00 Build 0)  -->
<svg version="1.1" id="Layer_1" xmlns="http://www.w3.org/2000/svg" xmlns:xlink="http://www.w3.org/1999/xlink" x="0px" y="0px"
	 viewBox="0 0 512 512" enable-background="new 0 0 512 512" xml:space="preserve">
<g>
	<path d="M448,0H64c0,0,0,0,0,0C46.3,0,32,14.3,32,32v448c0,0,0,0,0,0c0,17.7,14.3,32,32,32h256V368v0c0,0,0,0,0,0
		c0-8.8,7.2-16,16-16h144V32c0,0,0,0,0,0C480,14.3,465.7,0,448,0z M400,320H112c-8.5-0.2-15.4-7.1-15.6-15.6
		c-0.2-8.8,6.8-16.2,15.6-16.4h288c8.5,0.2,15.4,7.1,15.6,15.6C415.8,312.5,408.8,319.8,400,320z M400,224H112c0,0,0,0,0,0
		c-8.8,0-16-7.2-16-16c0,0,0,0,0,0c0-8.8,7.2-16,16-16h288c0.2,0,0.5,0,0.7,0c8.8,0.2,15.8,7.5,15.6,16.4
		C416.2,217.2,408.8,224.2,400,224z M400,128H112c0,0,0,0,0,0c-8.8,0-16-7.2-16-16c0,0,0,0,0,0c0-8.8,7.2-16,16-16h288
		c0.2,0,0.5,0,0.7,0c8.8,0.2,15.8,7.5,15.6,16.4C416.2,121.2,408.8,128.2,400,128z"/>
	<polygon points="352,512 480,384 352,384 	"/>
</g>
</svg>
