<?xml version="1.0" encoding="utf-8"?>
<!-- Generator: Adobe Illustrator 19.1.0, SVG Export Plug-In . SVG Version: 6.00 Build 0)  -->
<svg version="1.1" id="Layer_1" xmlns="http://www.w3.org/2000/svg" xmlns:xlink="http://www.w3.org/1999/xlink" x="0px" y="0px"
	 viewBox="0 0 512 512" enable-background="new 0 0 512 512" xml:space="preserve">
<path id="user" d="M256,0C114.6,0,0,114.6,0,256s114.6,256,256,256s256-114.6,256-256S397.4,0,256,0z M256,98.2
	c41,0,74.2,33.2,74.2,74.2S297,246.6,256,246.6s-74.2-33.2-74.2-74.2S215,98.2,256,98.2z M384.5,390.8H125.4
	c-0.6-71.6,56.9-130.1,128.4-130.7c71.6-0.6,130.1,56.9,130.7,128.4C384.5,389.3,384.5,390,384.5,390.8z"/>
</svg>
