<?xml version="1.0" encoding="utf-8"?>
<!-- Generator: Adobe Illustrator 19.1.0, SVG Export Plug-In . SVG Version: 6.00 Build 0)  -->
<svg version="1.1" id="Layer_1" xmlns="http://www.w3.org/2000/svg" xmlns:xlink="http://www.w3.org/1999/xlink" x="0px" y="0px"
	 viewBox="0 0 512 512" enable-background="new 0 0 512 512" xml:space="preserve">
<g id="dashboard">
	<path d="M497,50.9c-0.1,0-0.2,0-0.3,0H15.7C7.3,50.9,0,57.3,0,65.7V387c0.2,8.6,7.1,15.4,15.7,15.5h189.4
		c-0.2,4.8-1.7,25.6-11.6,35.7c-7.8,7.9-18.6,15.4-14.4,19.2c1,2.4,5.9,3.7,16.9,3.7h124.6c12.6,0,17-2.1,17-5.1h-0.4v-1h-0.4
		c-0.6-4.2-9-10.3-15.3-16.7c-9.9-10.1-11.4-30.9-11.6-35.7h186.9c8.5-0.1,15.3-7,15.2-15.5V65.7C512,57.5,505.3,50.9,497,50.9z
		 M265.9,377.8c0,5.5-4.4,9.9-9.9,10c0,0,0,0,0,0c-5.5,0-10-4.4-10-10s4.4-10,10-10C261.4,367.7,265.9,372.2,265.9,377.8
		C266,377.7,266,377.7,265.9,377.8z M490.4,335.7L490.4,335.7l-468.8,0V71.5h468.8V335.7z"/>
	<rect x="44.9" y="256" width="211.1" height="12.9"/>
	<rect x="44.9" y="279.7" width="422.2" height="12.9"/>
	<rect x="44.9" y="303.3" width="422.2" height="12.9"/>
	<path d="M84.5,215.7h23c2.7,0,4.9-2.2,4.9-4.9v-44c0-2.7-2.2-4.9-4.9-4.9h-23c-2.7,0-4.9,2.2-4.9,4.9v44
		C79.5,213.5,81.7,215.7,84.5,215.7z"/>
	<path d="M138.9,215.7h23c2.7,0,4.9-2.2,4.9-4.9v-71c0-2.7-2.2-4.8-4.9-4.9h-23c-2.7,0-5,2.2-5,4.9c0,0,0,0,0,0v71
		C134,213.5,136.2,215.7,138.9,215.7z"/>
	<path d="M188.5,210.8c0,2.7,2.2,4.9,4.9,4.9h23c2.7,0,4.9-2.2,4.9-4.9v-97.9c0-2.7-2.2-5-4.9-5c0,0,0,0,0,0h-23c-2.7,0-5,2.2-5,4.9
		c0,0,0,0.1,0,0.1V210.8z"/>
	<path d="M295,209.1c4.4,0,8-3.6,8.1-8c0-1.5-0.4-3-1.2-4.2l33.4-33.4c3.2,2,7.3,1.5,9.9-1.1l36,22.5c-0.3,0.8-0.4,1.7-0.4,2.6
		c0,4.4,3.6,8,8.1,8c4.4,0,8-3.6,8-8.1c0-1-0.2-2.1-0.6-3.1l39.2-28.7c3.4,2.9,8.5,2.5,11.4-0.9c2.9-3.4,2.5-8.5-0.9-11.4
		c-3.4-2.9-8.5-2.5-11.4,0.9c-1.2,1.5-1.9,3.3-1.9,5.2c0,1.1,0.2,2.2,0.6,3.2L394,181.4c-3.2-2.8-7.9-2.6-10.9,0.4l-36-22.5
		c0.3-0.8,0.4-1.7,0.4-2.6c-0.2-4.5-3.9-7.9-8.3-7.8c-4.2,0.1-7.6,3.5-7.8,7.8c0,1.5,0.4,3,1.2,4.2l-33.4,33.4
		c-1.3-0.8-2.7-1.2-4.2-1.2c-4.5,0-8.1,3.6-8.1,8.1S290.5,209.1,295,209.1z"/>
</g>
</svg>
