<?xml version="1.0" encoding="utf-8"?>
<!-- Generator: Adobe Illustrator 19.1.0, SVG Export Plug-In . SVG Version: 6.00 Build 0)  -->
<svg version="1.1" id="Layer_1" xmlns="http://www.w3.org/2000/svg" xmlns:xlink="http://www.w3.org/1999/xlink" x="0px" y="0px"
	 viewBox="0 0 512 512" enable-background="new 0 0 512 512" xml:space="preserve">
<g>
	<path d="M217.6,327.4c0-19.7-16-35.7-35.8-35.7c-19.7,0-35.7,16-35.7,35.7c0,19.7,16,35.8,35.8,35.8
		C201.6,363.2,217.6,347.1,217.6,327.4z"/>
	<path d="M483.3,312.1H289.9v103.3h222l-0.1-75.1C511.6,324.7,498.9,312.1,483.3,312.1z"/>
	<polygon points="512,23 0,254.1 0,303.8 51.4,280.8 51.4,488 512,488 512,440.2 99.2,440.2 99.2,259.1 512,72.6 	"/>
	<path d="M171.1,415.5h81.7c9.7,0,17.6-7.9,17.6-17.6v-70.8c0-9.7-7.9-17.6-17.6-17.6s-17.6,7.9-17.6,17.6l0.1,53.1h-64.2
		c-9.7,0-17.6,7.9-17.6,17.6S161.3,415.5,171.1,415.5z"/>
</g>
</svg>
