<?xml version="1.0" encoding="utf-8"?>
<!-- Generator: Adobe Illustrator 19.1.0, SVG Export Plug-In . SVG Version: 6.00 Build 0)  -->
<svg version="1.1" id="Layer_1" xmlns="http://www.w3.org/2000/svg" xmlns:xlink="http://www.w3.org/1999/xlink" x="0px" y="0px"
	 viewBox="0 0 512 512" enable-background="new 0 0 512 512" xml:space="preserve">
<g>
	<path d="M153.2,217C153.2,217,153.2,217,153.2,217c-7.7-7.8-20.2-8-28-0.4l-24.7,24.1c-1,1.2-2.1,2.3-3.4,3.3
		c5.7-88.7,82.3-155.9,171-150.2c46.7,3,89.7,26.2,117.9,63.5c5.9,7.8,16.9,9.3,24.7,3.4c7.8-5.9,9.3-16.9,3.4-24.7
		C370.7,78.6,299.2,49.6,228,60.4C135,74.6,66.3,151.1,61.6,244c-0.4-0.4-0.8-0.9-1.1-1.5L34,215.5c-7.7-7.8-20.2-8-28-0.3
		c-7.8,7.7-8,20.2-0.3,28l58.8,60.4c7.6,7.8,20.2,8,28,0.4c0,0,0,0,0,0l60.4-58.8C160.7,237.4,160.9,224.9,153.2,217z M79.9,270.7
		c0,0-0.1-0.1-0.1-0.1h0.7C80.4,270.8,80.1,270.8,79.9,270.7z"/>
	<path d="M506.4,269.8l-58.8-60.4c-7.6-7.8-20.2-8-28-0.3l-60.4,58.8c-7.8,7.6-8,20.2-0.4,28c7.6,7.8,20.2,8,28,0.4l24.7-24.1
		c0.9-1.1,1.9-2.1,3-3c-6.4,88.6-83.4,155.3-172.1,148.9c-46.3-3.3-88.8-26.5-116.8-63.5c-5.8-7.8-16.8-9.5-24.7-3.8
		c-7.8,5.8-9.5,16.8-3.8,24.7c0.1,0.1,0.2,0.3,0.3,0.4c43.5,57.5,114.9,86.5,186.1,75.6c92.8-14.1,161.4-90.3,166.4-182.9
		c0.6,0.5,1,1.1,1.4,1.8l26.4,27.1c7.6,7.8,20.2,8,28,0.3C513.9,290.2,514,277.6,506.4,269.8z"/>
</g>
</svg>
