<?xml version="1.0" encoding="utf-8"?>
<!-- Generator: Adobe Illustrator 19.1.0, SVG Export Plug-In . SVG Version: 6.00 Build 0)  -->
<svg version="1.1" id="Layer_1" xmlns="http://www.w3.org/2000/svg" xmlns:xlink="http://www.w3.org/1999/xlink" x="0px" y="0px"
	 viewBox="0 0 512 512" enable-background="new 0 0 512 512" xml:space="preserve">
<g id="dashboard">
	<path d="M256.9,53.1C115.4,52.6,0,167.4,0,308.9c0.1,47.5,13.2,94.1,38.1,134.7c5.9,9.4,16.2,15.2,27.3,15.3h381.3
		c11.1,0,21.5-5.8,27.3-15.3c24.8-40.4,37.9-86.8,38.1-134.1C511.4,167.4,398.4,53.7,256.9,53.1z M426.8,402
		c-4.5,7.4-12.5,10.8-21,10.8H106.8c-8.5,0-16.5-3.4-21-10.8c-18.8-30.7-30.1-66.5-30.1-105.1c0-110.8,90.3-200.6,201.1-200
		c110.8,0.6,199.5,89.2,199.5,200C456.4,334,446.2,370.4,426.8,402z"/>
	<path d="M326.4,173c-21.5-12.5-45.8-19.2-70.7-19.3c-9,0.1-17.9,1-26.7,2.8c-3.5,0.6-5.7,3.9-5.1,7.4s3.9,5.7,7.4,5.1
		c8-1.6,16.2-2.4,24.4-2.3c71,0,129,58,129,129c0,22.8-6.1,45.1-17.6,64.8c-1.6,3-0.6,6.7,2.3,8.5c0.9,0.4,1.9,0.6,2.8,0.6
		c2.1,0,4-1.1,5.1-2.8C416.8,299.3,394,212.5,326.4,173z"/>
	<path d="M156.3,194.6c-26.6,26.5-41.5,62.5-41.5,100c0.1,23.8,6.2,47.3,17.6,68.2c1,2,2.9,3.3,5.1,3.4c1.1,0,2.3,0,2.8-0.6
		c3-1.7,4-5.5,2.3-8.5c-10.4-19-15.8-40.3-15.9-61.9c-0.1-34.1,13.4-66.8,37.5-90.9c2.3-2.4,2.3-6.1,0-8.5
		C162.5,192.4,158.5,192.4,156.3,194.6z"/>
	<path d="M185.8,151.4c-0.3-0.6-1.1-0.8-1.7-0.4c-0.4,0.2-0.6,0.6-0.6,1c6.8,36.4,35.2,193.8,40.9,209.1
		c6.3,17.2,25.4,26.1,42.6,19.9c17.6-6.2,26.1-25,19.9-42.6C281.3,323.1,203.4,183.3,185.8,151.4z"/>
</g>
</svg>
