<?xml version="1.0" encoding="utf-8"?>
<!-- Generator: Adobe Illustrator 19.1.0, SVG Export Plug-In . SVG Version: 6.00 Build 0)  -->
<svg version="1.1" id="Layer_1" xmlns="http://www.w3.org/2000/svg" xmlns:xlink="http://www.w3.org/1999/xlink" x="0px" y="0px"
	 viewBox="0 0 512 512" enable-background="new 0 0 512 512" xml:space="preserve">
<path id="transport" d="M445.7,32.5c0-18-14.6-32.5-32.6-32.5H98.9c-18,0-32.6,14.6-32.6,32.5l-27.7,205h0.1v199.6h17.8V512H123
	v-74.9h266V512h66.5v-74.8h17.8V237.5h0.1L445.7,32.5z M193.7,23.3h124.7v36.5H193.7V23.3z M121.7,378.9
	C121.7,378.9,121.7,378.9,121.7,378.9c-23,0-41.6-18.7-41.6-41.6c0-23,18.7-41.5,41.6-41.5c22.9,0,41.5,18.6,41.5,41.6
	C163.3,360.3,144.7,378.9,121.7,378.9z M390.4,378.9C390.4,378.9,390.3,378.9,390.4,378.9c-23,0-41.6-18.6-41.6-41.6
	c0-23,18.6-41.6,41.6-41.5c22.9,0,41.5,18.6,41.5,41.6C431.9,360.3,413.3,378.9,390.4,378.9z M80.1,228.6L80.1,228.6l27.7-145.5
	h296.3l27.7,145.5H80.1z"/>
</svg>
