<?xml version="1.0" encoding="utf-8"?>
<!-- Generator: Adobe Illustrator 19.1.0, SVG Export Plug-In . SVG Version: 6.00 Build 0)  -->
<svg version="1.1" id="Layer_1" xmlns="http://www.w3.org/2000/svg" xmlns:xlink="http://www.w3.org/1999/xlink" x="0px" y="0px"
	 viewBox="0 0 512 512" enable-background="new 0 0 512 512" xml:space="preserve">
<path d="M256,0C114.6,0,0,114.6,0,256s114.6,256,256,256s256-114.6,256-256C512.2,114.8,397.9,0.2,256.7,0C256.5,0,256.2,0,256,0
	L256,0z M296.4,398.2c0,12.5-10.8,23.3-23.3,23.3h-35.3c-12.5,0-23.3-10.8-23.3-23.3v-149c0.1-12.9,10.5-23.3,23.3-23.3h35.3
	c12.5,0,23.3,10.8,23.3,23.3V398.2z M255.4,187.2c-26.2,0-47.8-21.6-47.8-48.4s21.6-48.4,47.8-48.4c26.7,0,48.4,21.6,48.4,48.3
	C303.8,165.5,282.1,187.1,255.4,187.2L255.4,187.2z"/>
</svg>
