<?xml version="1.0" encoding="utf-8"?>
<!-- Generator: Adobe Illustrator 19.1.0, SVG Export Plug-In . SVG Version: 6.00 Build 0)  -->
<svg version="1.1" id="Layer_1" xmlns="http://www.w3.org/2000/svg" xmlns:xlink="http://www.w3.org/1999/xlink" x="0px" y="0px"
	 viewBox="0 0 512 512" style="enable-background:new 0 0 512 512;" xml:space="preserve">
<style type="text/css">
	.st0{fill:#010101;}
</style>
<path class="st0" d="M315.3,99c25.6,0,46.5-20.9,46.5-46.5S340.9,6,315.3,6c-25.6,0-46.5,20.9-46.5,46.5S289.7,99,315.3,99z
	 M231.6,422.3L254.8,320l48.8,46.5V506h46.5V331.6l-48.8-46.5l14-69.8c30.2,34.9,76.7,58.1,127.9,58.1v-46.5
	c-44.2,0-81.4-23.3-100-55.8L320,133.9c-9.3-14-23.3-23.3-39.5-23.3c-7,0-11.6,2.3-18.6,2.3l-120.9,51.2v109.3h46.5v-79.1l41.9-16.3
	L192,366.5l-114-23.3l-9.3,46.5L231.6,422.3z"/>
</svg>
