<?xml version="1.0" encoding="utf-8"?>
<!-- Generator: Adobe Illustrator 19.1.0, SVG Export Plug-In . SVG Version: 6.00 Build 0)  -->
<svg version="1.1" id="Layer_1" xmlns="http://www.w3.org/2000/svg" xmlns:xlink="http://www.w3.org/1999/xlink" x="0px" y="0px"
	 viewBox="0 0 512 512" style="enable-background:new 0 0 512 512;" xml:space="preserve">
<style type="text/css">
	.st0{fill:#010101;}
</style>
<path class="st0" d="M464.9,123.5l0.3-0.3L361.8,19.9l-29.4,29.4l58.6,58.6c-26.1,10-44.7,35-44.7,64.7c0,38.3,31.1,69.4,69.4,69.4
	c10,0,19.2-2.2,27.8-5.8v200.3c0,15.3-12.5,27.8-27.8,27.8c-15.3,0-27.8-12.5-27.8-27.8v-125c0-30.6-25-55.6-55.6-55.6h-27.8V61.6
	c0-30.6-25-55.6-55.6-55.6H82.4C51.8,6,26.8,31,26.8,61.6V506h277.8V297.7h41.7v138.9c0,38.3,31.1,69.4,69.4,69.4
	s69.4-31.1,69.4-69.4V172.7C485.2,153.5,477.4,136,464.9,123.5z M249.1,200.4H82.4V61.6h166.7V200.4z M415.7,200.4
	c-15.3,0-27.8-12.5-27.8-27.8s12.5-27.8,27.8-27.8c15.3,0,27.8,12.5,27.8,27.8S431,200.4,415.7,200.4z"/>
</svg>
