<?xml version="1.0" encoding="utf-8"?>
<!-- Generator: Adobe Illustrator 19.1.0, SVG Export Plug-In . SVG Version: 6.00 Build 0)  -->
<svg version="1.1" id="Layer_1" xmlns="http://www.w3.org/2000/svg" xmlns:xlink="http://www.w3.org/1999/xlink" x="0px" y="0px"
	 viewBox="0 0 512 512" style="enable-background:new 0 0 512 512;" xml:space="preserve">
<g>
	<path d="M505.9,249.6c0-7.4-3.7-13-10.3-16.4c-6.5-3.3-13-2.9-19.1,1.1c-6.4,4.2-8.5,10.4-8.5,17.8c0.1,38.3,0,76.6,0.1,114.9
		c0,3-0.8,3.8-3.8,3.8c-46.7-0.1-93.4-0.1-140.1-0.1c-86.7,0-173.3,0-260,0c-7.7,0-15.5,0-23.5,0c-0.1-1.2-0.2-2-0.2-2.7
		c0-12.3,0-24.7,0-37c0-53.4,0-106.8-0.1-160.1c0-2.4-0.4-4.9-1.2-7c-3.1-7.7-11.2-11.9-19.4-10.4c-8.1,1.5-13.9,8.6-13.9,17
		c0,60.5,0,121,0,181.5c0,27.9,0,55.9,0,83.8c0,10.4,9.1,18.4,19.3,17.1c9.3-1.2,15.3-8.2,15.5-18.2c0.1-9.5,0-19.1,0-28.6
		c0-1.2,0.1-2.4,0.2-3.8c2.3,0,4.2,0,6.1,0c61.2,0,122.5,0,183.7,0c77.9,0,155.8,0,233.6-0.1c2.8,0,3.8,0.7,3.8,3.7
		c-0.2,9.3,0,18.6-0.1,27.9c0,6,2.2,11.1,6.9,14.9c6.1,4.9,13,5.9,20,2.6c7.2-3.3,10.9-9.3,10.9-17.3c0-39.9,0-79.8,0.1-119.6
		C506,293,506,271.3,505.9,249.6z"/>
	<path d="M178,336.6c81.2,0,162.5,0,243.7,0c3.8,0,7.7,0,11.5,0c0.2-0.7,0.4-1,0.4-1.2c0-19.8,0.4-39.6-0.2-59.3
		c-0.5-15.8-14.1-28.2-29.8-28.2c-66.6-0.1-133.1-0.1-199.7,0.1c-4.2,0-8.7,1-12.4,2.8c-11.9,5.8-17.4,16-17.5,28.9
		c-0.3,17.6-0.1,35.2-0.1,52.8C173.8,336.6,173.7,336.6,178,336.6z"/>
	<path d="M455.1,196.8c0-14.2,0-28.4,0-42.6c0-31.1,0-62.1,0-93.2c0-1.9-0.6-2.4-2.5-2.4c-50.8,0-101.6,0-152.4,0
		c-0.7,0-1.4,0.1-2.1,0.2c0,47.1,0,94.1,0,141.2c52.4,0,104.6,0,157,0C455.1,198.8,455.1,197.8,455.1,196.8z M349,71.3h13.2v13.2
		H349V71.3z M329.7,71.3h13.2v13.2h-13.2V71.3z M310.3,71.3h13.2v0c0,4.5,0,8.5,0,12.8v0.4h-13.2V71.3z M442.2,186.7
		c-43.9,0-87.6,0-131.5,0c0-29.7,0-59.5,0-89.5c43.9,0,87.6,0,131.5,0C442.2,127.1,442.2,156.8,442.2,186.7z"/>
	<path d="M108.3,336.6c25,0.2,44.9-19.1,45.2-44.1c0.3-24.4-19.3-44.4-44-44.8c-24.1-0.4-44.2,19.5-44.6,43.8
		C64.6,316.1,84.2,336.4,108.3,336.6z"/>
	<path d="M347.8,155.1c1.8,0,2.7-0.6,3.4-2.2c2.2-5,4.6-9.8,6.9-14.7c0.2,0,0.4,0,0.5,0.1c3.3,13.7,6.6,27.4,9.9,41.1
		c0.2,0,0.3,0,0.5,0c4.5-9.6,8.9-19.3,13.7-29.5c1.4,3.8,2.7,6.8,3.7,9.9c0.5,1.5,1.2,2,2.8,1.9c5.9-0.1,11.9,0,17.8,0
		c7.8,0,15.6,0,23.4-0.1c0.7,0,2.1-0.7,2.1-1.1c0.2-2.7,0.1-5.4,0.1-8.4c-1.2,0-2,0-2.9,0c-11.2,0-22.3-0.1-33.5,0
		c-2,0-2.9-0.6-3.5-2.4c-0.9-2.7-1.9-5.3-3-7.9c-2.1-5.3-4.2-10.7-6.4-16.5c-4,8.5-7.7,16.6-11.4,24.7c-0.2,0-0.4-0.1-0.6-0.1
		c-3.2-13.4-6.4-26.8-9.8-40.9c-0.8,1.6-1.3,2.5-1.7,3.4c-4.5,9.3-9.1,18.6-13.2,28c-1.7,4-3.9,5.3-8.2,5
		c-5.9-0.4-11.8-0.1-17.9-0.1c0,3.3,0,6.3,0,9.4c0.8,0.1,1.4,0.1,2,0.1C330.9,155,339.4,155,347.8,155.1z"/>
</g>
</svg>
