<?xml version="1.0" encoding="utf-8"?>
<!-- Generator: Adobe Illustrator 19.1.0, SVG Export Plug-In . SVG Version: 6.00 Build 0)  -->
<svg version="1.1" id="Layer_1" xmlns="http://www.w3.org/2000/svg" xmlns:xlink="http://www.w3.org/1999/xlink" x="0px" y="0px"
	 viewBox="0 0 512 512" style="enable-background:new 0 0 512 512;" xml:space="preserve">
<style type="text/css">
	.st0{fill:#010101;}
</style>
<path class="st0" d="M256,387c26.2,0,47.6-21.4,47.6-47.6c0-26.2-21.4-47.6-47.6-47.6s-47.6,21.4-47.6,47.6
	C208.4,365.5,229.8,387,256,387z M398.9,172.7H375V125C375,59.3,321.7,6,256,6S137,59.3,137,125v47.6h-23.8
	c-26.2,0-47.6,21.4-47.6,47.6v238.1c0,26.2,21.4,47.6,47.6,47.6h285.7c26.2,0,47.6-21.4,47.6-47.6V220.3
	C446.5,194.1,425,172.7,398.9,172.7z M182.2,125c0-40.7,33.1-73.8,73.8-73.8s73.8,33.1,73.8,73.8v47.6H182.2V125z M398.9,458.4
	H113.1V220.3h285.7V458.4z"/>
</svg>
