<?xml version="1.0" encoding="utf-8"?>
<!-- Generator: Adobe Illustrator 19.1.0, SVG Export Plug-In . SVG Version: 6.00 Build 0)  -->
<svg version="1.1" id="Layer_1" xmlns="http://www.w3.org/2000/svg" xmlns:xlink="http://www.w3.org/1999/xlink" x="0px" y="0px"
	 viewBox="0 0 512 512" style="enable-background:new 0 0 512 512;" xml:space="preserve">
<style type="text/css">
	.st0{stroke:#FFFFFF;stroke-width:4;stroke-miterlimit:10;}
	.st1{stroke:#FFFFFF;stroke-width:6;stroke-miterlimit:10;}
</style>
<path id="table" d="M500.2,342.2H106.9c-3.2,0-5.8,2.6-5.8,5.8v11.6c0,3.2,2.6,5.8,5.8,5.8H190V430h-25v17h18.2
	c-5.4,3.1-9.1,9-9.1,15.7c0,10,8.1,18.1,18.1,18.1s18.1-8.1,18.1-18.1c0-6.7-3.7-12.6-9.1-15.7h209c-5.4,3.1-9.1,9-9.1,15.7
	c0,10,8.1,18.1,18.1,18.1s18.1-8.1,18.1-18.1c0-6.7-3.7-12.6-9.1-15.7H442v-17h-25.4v-64.6h83.5c3.2,0,5.8-2.6,5.8-5.8V348
	C506,344.9,503.4,342.2,500.2,342.2z M203.8,462.6c0,6.4-5.2,11.6-11.6,11.6c-6.4,0-11.6-5.2-11.6-11.6s5.2-11.6,11.6-11.6
	C198.6,451.1,203.8,456.3,203.8,462.6z M419.7,451.1c6.4,0,11.6,5.2,11.6,11.6s-5.2,11.6-11.6,11.6s-11.6-5.2-11.6-11.6
	S413.3,451.1,419.7,451.1z"/>
<g id="light">
	<path d="M280.5,49.3c-53.7,0-97.2,10.2-97.2,22.8s43.5,22.8,97.2,22.8s97.2-10.2,97.2-22.8C377.7,59.5,334.2,49.3,280.5,49.3z
		 M222.3,77.1c-14.9,0-27-2.8-27-6.2c0-3.4,12.1-6.2,27-6.2s27,2.8,27,6.2C249.3,74.4,237.2,77.1,222.3,77.1z M253.5,62.1
		c0-3.4,12.1-6.2,27-6.2s27,2.8,27,6.2s-12.1,6.2-27,6.2C265.6,68.3,253.5,65.5,253.5,62.1z M281.1,86.6c-14.9,0-27-2.8-27-6.2
		c0-3.4,12.1-6.2,27-6.2s27,2.8,27,6.2C308.1,83.8,296,86.6,281.1,86.6z M342.4,77.1c-14.9,0-27-2.8-27-6.2c0-3.4,12.1-6.2,27-6.2
		s27,2.8,27,6.2C369.4,74.4,357.3,77.1,342.4,77.1z"/>
	<path d="M184.2,62.4c0,0.1,0,0.3-0.1,0.4c9.1-10.6,48.7-18.5,96.2-18.5c48.3,0,88.4,8.2,96.6,19.1l0,0c0-0.3,0-0.6-0.1-1
		c0-0.3,0.1-0.6,0.1-1s0-0.6-0.1-1c0-0.3,0.1-0.6,0.1-1s0-0.6-0.1-1c0-0.3,0.1-0.6,0.1-1s0-0.6-0.1-1c0-0.3,0.1-0.6,0.1-1
		s0-0.6-0.1-1c0-0.3,0.1-0.6,0.1-1s0-0.6-0.1-1c0-0.3,0.1-0.6,0.1-1s0-0.6-0.1-1c0-0.3,0.1-0.6,0.1-1c0-13.6-43.2-24.6-96.4-24.6
		s-96.4,11-96.4,24.6c0,0.3,0,0.6,0.1,1c0,0.3-0.1,0.6-0.1,1s0,0.6,0.1,1c0,0.3-0.1,0.6-0.1,1s0,0.6,0.1,1c0,0.3-0.1,0.6-0.1,1
		s0,0.6,0.1,1c0,0.3-0.1,0.6-0.1,1s0,0.6,0.1,1c0,0.3-0.1,0.6-0.1,1s0,0.6,0.1,1c0,0.3-0.1,0.6-0.1,1S184.2,62.1,184.2,62.4z"/>
</g>
<g id="patient">
	<circle cx="171.4" cy="305.5" r="31.2"/>
	<path d="M457.9,303.8l-63.3-14c-0.7-0.1-1.3-0.2-2-0.3c-1-0.2-2-0.3-3.1-0.2l-46.4,1.8c-0.4,0-0.8,0.1-1.2,0.1
		c-9.2-7.8-19.6-8.6-29.5-5.1c-10.4,3.8-25.4,5.5-25.4,5.5c-26,1.4-50-0.6-54.4-1.7c-4.3-1.2-18.5-3.2-22.8,11
		c-6.5,21.3,15.9,24.9,15.9,24.9c21.4,9,77.2,14.7,104.4,7.2c7.3-2,12.4-5.7,15.6-10.1l45-1.7c0.7,0,1.4-0.1,2.1-0.3l58.5,12.9
		c7.5,1.6,14.9-3.1,16.5-10.6l0.6-2.8C470.2,312.9,465.4,305.5,457.9,303.8z M283.3,332.6c-3.5,1.3-5.6,2.7-10.8,1.2l-47.7-17.6
		c-6.3-2.3-9.5-9.3-7.2-15.6c2.3-6.3,9.3-9.5,15.6-7.2l43.1,15.8l56.4-12.9c6.5-1.5,13.1,2.6,14.5,9.1c1.5,6.5-2.6,13.1-9.1,14.5
		L283.3,332.6z"/>
	<g>
		<path class="st0" d="M276.5,335.6c-1.3,0-2.7-0.2-4.3-0.7l-47.8-17.6c-6.9-2.5-10.4-10.2-7.9-17.1c1.9-5.2,6.9-8.7,12.5-8.7
			c1.6,0,3.1,0.3,4.6,0.8l42.7,15.7l56-12.8c1-0.2,2-0.3,2.9-0.3c6.2,0,11.6,4.4,13,10.3c0.8,3.5,0.2,7-1.7,10
			c-1.9,3-4.8,5.1-8.3,5.9l-54.6,12.5c-0.5,0.2-1,0.4-1.5,0.6C280.3,335,278.7,335.6,276.5,335.6L276.5,335.6z"/>
	</g>
</g>
<g id="DR">
	<g id="dr_head">
		<path d="M271.2,163.7h26.6c2.7,0,5.1,1.6,6.2,3.9l12.7-4.7c0.1-1,0.1-2,0.1-3c0-17.9-14.5-32.4-32.4-32.4S252,142,252,159.9
			c0,1.2,0.1,2.4,0.2,3.5l12.2,5.2C265.4,165.8,268.1,163.7,271.2,163.7z"/>
		<path d="M264.3,172.6l-11.4-4.8c0.8,3.8,1.9,5.4,3.9,8.5l7.6-0.8L264.3,172.6z"/>
		<path d="M297.8,184.5h-26.6c-3.2,0-6-2.2-6.7-5.3l-5.5,0.6c5.9,7.6,15.1,12.4,25.5,12.4c10.3,0,19.5-4.8,25.4-12.3l-5.2-1.4
			C304.2,182,301.3,184.5,297.8,184.5z"/>
		<path d="M304.8,174.8l6.9,1.8c2.2-3.5,3.8-5.4,4.6-9.6l-11.5,4.4"/>
		<path id="cap" d="M310.5,149.2l-52.1-0.4c-7.1,0.2-6.2-1.9-5.6-6.7l2.8-14.9c1.3-8.4,6.2-13.9,13.9-13.9h29.7
			c7.5,0,12.4,5.3,14.4,13.6l1.9,14.1C316.1,146.7,319.4,148.8,310.5,149.2z"/>
	</g>
	<path class="st1" d="M324.2,288.2c-2.7,0-5.2-0.9-7.3-2.6c-1.3-1.1-2.4-2.5-3.1-4h-58.5c-0.7,1.5-1.8,2.9-3.1,4
		c-2,1.7-4.6,2.6-7.3,2.6c-3.5,0-6.7-1.5-8.9-4.2l-29.7-36.2c-2.5-3-3.2-7.1-2-10.9c0.4-1.6,1.1-3,2.2-4.3l39.8-49.9
		c2-2.5,5.1-4.1,8.3-4.3h0.7l0.4,0.6c6.2,10.1,17,16.1,28.9,16.1s22.6-6,28.9-16.1l0.4-0.6h0.7c3.3,0.2,6.3,1.8,8.3,4.3l39.8,49.9
		c1,1.3,1.8,2.8,2.2,4.4c1.2,3.7,0.4,7.7-2,10.8L333.1,284C330.9,286.6,327.6,288.2,324.2,288.2L324.2,288.2z M247.2,261.4v-41.7
		l-16.9,21.1L247.2,261.4z M325.8,256.6l12.9-15.7l-12.9-16.2V256.6z"/>
</g>
<path id="nurse_body" d="M112.3,302.8l-35.9-17.7l-13.9-28c-0.3-0.6-0.7-1.2-1.1-1.8c0.5-1.8,1-3.7,1.6-5.5c0,0,7-14.8-9.3-22.7
	c-14.3-6.9-26.6,7.7-27.8,15c0,0-20.5,32.8-20,79.8c0.1,12.6,5.4,20.1,12.6,23.7l4.1,65.6c0.1,1,0.2,1.9,0.5,2.8c-0.2,1-0.4,2-0.4,3
	L22,472.5c-0.1,7.6,6.1,14,13.7,14.1h3.5c7.6,0.1,14-6.1,14.1-13.7l0.8-55.5c0-1.4-0.2-2.7-0.5-4c0.3-1.3,0.5-2.8,0.4-4.2l-4.2-67.8
	c4.5-3.7,7.5-8.6,7.7-14.4c0,0-2.3-12.7-1.8-31.1l1.2,2.4c0.7,1.5,1.7,2.7,2.9,3.7c1,1.2,2.3,2.2,3.8,3l38.5,19
	c5.8,2.9,12.9,0.4,15.7-5.4C120.5,312.8,118.1,305.7,112.3,302.8z"/>
<g id="nurse_head">
	<path d="M93.9,144.7c0,0-11.6-6.1-22.3-9.8c-10.7-3.8-16.8,6.4-16.8,6.4s-4.6,6.4-8.1,11.9c-2.4,3.8-1.8,6.1-1.4,7.1
		c-10.7,5.6-17.9,16.8-17.9,29.7c0,18.5,15,33.5,33.5,33.5c4.8,0,9.3-1,13.4-2.8l-10.5-5.8c-2.8-1.5-4.1-4.7-3.4-7.7l-16.2-3.4
		l0.5-3.3l16.6,3.5l2.9-4.3c0.1-0.2-0.7,0.5-0.6,0.3l-11.3-13.6l2.8-2.5l11.2,13.4c2.1-1.5,5-1.8,7.4-0.4l16.6,9.1
		c2.6-4.8,4.1-10.3,4.1-16.1c0-2.5-0.3-5-0.8-7.4c3,0.4,4.1-4.2,4.1-4.2l4.3-16.8C103.2,151.4,93.9,144.7,93.9,144.7z"/>
</g>
</svg>
