<?xml version="1.0" encoding="utf-8"?>
<!-- Generator: Adobe Illustrator 19.1.0, SVG Export Plug-In . SVG Version: 6.00 Build 0)  -->
<svg version="1.1" id="Layer_1" xmlns="http://www.w3.org/2000/svg" xmlns:xlink="http://www.w3.org/1999/xlink" x="0px" y="0px"
	 viewBox="0 0 512 512" style="enable-background:new 0 0 512 512;" xml:space="preserve">
<g>
	<path d="M436.4,309.6c-12.6-24.5-26.1-48.5-39.8-72.5c-5.8-10.2-13.1-19.3-22-27.1c-14.4-12.8-31.7-17.7-50.5-17.6
		c-43.5,0.1-87.1,0.3-130.6,0.5c-10.4,0-20.3,2.8-29.5,7.3c-16.4,8.1-28.8,20.8-37.7,36.3c-11.8,20.6-22.6,41.9-33.4,63.1
		c-8.8,17.3-16.5,35.1-21.7,54c-4.8,17.7-7.3,35.5-3.8,53.7c5.2,27.1,18.8,48.8,41.7,64.3c24.5,16.5,51.6,26.6,80.5,31.9
		c18,3.3,36.1,3.7,54-0.6c13.5-3.3,25.9-8.6,35.2-19.6c11.8-13.9,11.5-32.6-1-44.3c-7.6-7.1-16.8-10.9-27.1-11.5
		c-12.1-0.7-24.2-1.2-36.4-1.3c-14.6-0.1-28.9-2.2-42.7-6.8c-9.1-3-17.9-7.1-26.6-11.2c-2.2-1-3.7-3.5-6.3-6c3.6-0.9,6-1.6,8.4-1.9
		c10.5-1.5,21-2.4,31.4-4.4c6.3-1.2,12.5-3.5,18.3-6.2c6.3-3,7.4-7.1,4.6-13.4c-1.5-3.6-3.4-7-5.3-10.4c-6.2-11.5-8.8-23.8-8.1-36.7
		c0.6-10.5,6.6-17.4,15.9-17.9c7.3-0.4,14.2,1.4,19.1,7.3c3.3,4,6,8.4,8.7,12.8c5.7,9.1,10.9,18.5,17,27.3
		c9.7,13.8,21.9,25,38.2,30.8c12.4,4.4,25.2,5.5,38.8,4.7c-1.5,1.3-2.9,2.6-4.4,4c-5.1,4.9-10.6,9.5-15.2,14.7
		c-9.7,10.8-11.1,26.5-3.6,37.3c6.9,9.8,17.2,13.3,28.5,13.9c16.9,0.9,32.7-3.5,47.2-12.1c18.3-10.9,32.8-26.1,46.2-42.4
		c12.3-14.9,19.7-32.1,21.2-51.4C447.2,341,444.1,324.5,436.4,309.6z M317.7,381.3c-31-0.4-55.8-26.1-55.3-56.3
		c-0.5-30.7,25.7-56.6,56.9-56c30.5,0.5,55.7,25.7,55.3,56.8C374.1,357.8,348.2,381.6,317.7,381.3z"/>
	<path d="M256.1,171.1c45.3,0.1,82.4-35.3,82.6-82.4c0.2-46-36.2-82.7-82.6-82.7c-46.4-0.1-82.4,37.4-82.5,82.6
		C173.7,133.3,208.8,171,256.1,171.1z"/>
</g>
</svg>
