<?xml version="1.0" encoding="utf-8"?>
<!-- Generator: Adobe Illustrator 19.1.0, SVG Export Plug-In . SVG Version: 6.00 Build 0)  -->
<svg version="1.1" id="Layer_1" xmlns="http://www.w3.org/2000/svg" xmlns:xlink="http://www.w3.org/1999/xlink" x="0px" y="0px"
	 viewBox="0 0 512 512" style="enable-background:new 0 0 512 512;" xml:space="preserve">
<style type="text/css">
	.st0{fill:#010101;}
</style>
<path class="st0" d="M256,6C118,6,6,118,6,256s112,250,250,250s250-112,250-250S394,6,256,6z M256,106.7c35.4,0,64,28.6,64,64
	s-28.6,64-64,64s-64-28.6-64-64S220.6,106.7,256,106.7z M256,409.6c-53.3,0-100.5-27.3-128-68.7c0.6-42.5,85.3-65.7,128-65.7
	c42.5,0,127.4,23.3,128,65.7C356.5,382.3,309.3,409.6,256,409.6z"/>
</svg>
